<svg width="105" height="102" viewBox="0 0 105 102" fill="none" xmlns="http://www.w3.org/2000/svg">
<g clip-path="url(#clip0_151_1039)">
<path d="M46.1805 39.2848C44.1907 36.3414 41.0634 35.0611 38.0074 35.204H38.0017C28.996 36.1442 28.4002 44.4172 28.3774 44.7773L27.8101 44.743C27.8158 44.6487 28.4544 35.5612 38.0786 34.6268L38.1014 34.6239L38.1299 34.5696L38.3352 34.181V30.3545C34.4524 34.0209 28.1351 34.3638 24.2039 30.6374V44.7602H23.6337V30.6317C19.6569 34.2667 13.3509 34.0838 9.49669 30.3545V34.181L9.69624 34.561H9.69909C19.483 35.4241 20.0959 44.6487 20.0987 44.743L19.5314 44.7745C19.5115 44.4172 18.947 36.1585 10.0184 35.1697L10.0298 35.1926C6.77419 34.9097 3.41027 36.2671 1.41472 39.6563C-1.9549 45.3746 1.01846 52.2188 6.99655 53.8591H13.445C15.4634 53.7905 17.5159 53.8077 19.5828 53.8591H37.8848C38.5975 53.8591 39.3016 53.7877 39.9858 53.6505C40.3621 53.5705 40.7299 53.4647 41.0891 53.3419V53.3704C42.2493 53.0075 43.3298 52.4474 44.2705 51.713C46.2433 50.1669 47.4834 47.4921 47.6287 44.5173C47.6259 44.5116 47.6259 44.5058 47.6287 44.5001C47.6915 42.6826 47.241 40.8566 46.1805 39.2848ZM11.7802 47.0206C11.3383 47.4778 10.751 47.7065 10.1666 47.7065C9.58221 47.7065 8.9921 47.4778 8.55023 47.0178C7.7235 46.1633 7.7064 44.8088 8.51317 43.9314C8.95789 43.4485 9.56226 43.2056 10.1638 43.2056C10.7653 43.2056 11.3725 43.4485 11.8172 43.9314C12.2135 44.363 12.413 44.9116 12.413 45.4575C12.413 46.0033 12.2021 46.5862 11.7802 47.0206ZM39.2303 47.0206C38.7885 47.4778 38.2041 47.7065 37.6168 47.7065C37.0295 47.7065 36.4423 47.4778 36.0033 47.0178C35.1737 46.1633 35.1594 44.8088 35.9633 43.9314C36.4081 43.4485 37.0124 43.2056 37.6168 43.2056C38.2212 43.2056 38.8227 43.4485 39.2674 43.9314C39.6637 44.363 39.8604 44.9088 39.8604 45.4575C39.8604 46.0061 39.6494 46.5862 39.2303 47.0206Z" fill="#3597D3"/>
<path d="M38.3337 30.1488L35.5684 28.3427C31.6771 26.4566 27.4665 27.1768 24.2024 29.883V26.1109L26.9163 22.4844L23.9116 19.1466L20.9154 22.4844L23.6322 26.1252V29.8887C20.3766 27.4168 16.7504 26.4652 12.8107 28.0798L9.49805 30.1488C9.56647 27.031 10.7239 24.0447 12.4714 21.4985C10.55 16.5433 11.5848 10.9708 14.2703 6.53846C14.3757 10.3964 14.5525 14.48 16.9044 17.7178C21.3373 15.2487 26.5571 15.4402 31.0186 17.7349C32.8688 14.3743 33.8893 10.3649 33.2593 6.54417C33.7981 6.42986 33.6071 6.67848 33.7611 6.94139C36.3154 11.2965 37.0993 16.6976 35.3689 21.5042C36.6318 23.4646 37.641 25.5536 38.0429 27.8741C38.0429 27.8741 38.0458 27.8855 38.0486 27.8998C38.08 28.0198 38.214 28.5999 38.3337 30.1488Z" fill="#3597D3"/>
<path d="M47.6772 15.9031C47.9908 21.1212 43.3383 25.7822 38.1328 25.4707C38.2383 20.1382 42.3691 16.0231 47.6772 15.9031Z" fill="#3597D3"/>
<path d="M0.059915 15.9031C-0.253671 21.1212 4.39881 25.7822 9.60433 25.4707C9.49885 20.1382 5.36807 16.0231 0.059915 15.9031Z" fill="#3597D3"/>
<path d="M31.0558 32.7406C32.3972 32.7406 33.4847 31.6505 33.4847 30.3059C33.4847 28.9612 32.3972 27.8711 31.0558 27.8711C29.7144 27.8711 28.627 28.9612 28.627 30.3059C28.627 31.6505 29.7144 32.7406 31.0558 32.7406Z" fill="#3597D3"/>
<path d="M16.7369 32.735C18.0704 32.735 19.1515 31.6513 19.1515 30.3145C19.1515 28.9777 18.0704 27.894 16.7369 27.894C15.4033 27.894 14.3223 28.9777 14.3223 30.3145C14.3223 31.6513 15.4033 32.735 16.7369 32.735Z" fill="#3597D3"/>
<path d="M23.9122 0L20.1035 4.15224L23.9122 8.10445L27.7265 4.15224L23.9122 0Z" fill="#3597D3"/>
<path d="M104.946 15.903C105.037 17.9234 104.398 19.8724 103.275 21.4784C103.098 21.7327 102.907 21.9785 102.705 22.2157C101.009 24.2132 98.5113 25.5135 95.8173 25.4706C95.746 25.4735 95.6748 25.4706 95.6035 25.4678H95.1987C90.0388 25.6021 85.8139 20.9897 85.8538 15.903C88.8899 15.9287 91.6979 17.3033 93.5395 19.7066L95.1958 23.0273V15.903C90.0416 16.0688 85.8111 11.4336 85.8538 6.33829C90.3752 6.32115 94.0897 9.49034 95.2472 13.7026V13.6054H95.6919C96.6212 9.59322 100.504 6.37544 104.64 6.33258C105.154 6.324 104.983 7.26133 104.943 7.65855C104.492 12.0794 100.284 16.0345 95.8173 15.9116V22.5529L96.5842 20.8554C97.9183 18.455 100.131 16.8404 102.705 16.2059C102.893 16.1574 103.081 16.1145 103.275 16.0802C103.819 15.9773 104.378 15.9173 104.946 15.903Z" fill="#3597D3"/>
<path d="M20.7595 68.8849V68.9478H20.7623C20.7595 68.9249 20.7595 68.9049 20.7595 68.8849ZM20.7595 68.8849V68.9478H20.7623C20.7595 68.9249 20.7595 68.9049 20.7595 68.8849ZM20.4801 68.9792C20.4773 68.9478 20.4744 68.9164 20.4744 68.8849V69.2336H20.5086L20.4801 68.9792ZM13.8691 54.4307C13.872 54.5278 13.8777 54.6193 13.8834 54.7136C13.8976 54.8908 13.9119 55.0708 13.9376 55.248C14.5533 60.2347 18.801 63.9925 23.8155 63.9954C26.5722 63.9897 29.2149 62.8409 31.085 60.8434C32.6415 59.1802 33.5909 57.0169 33.7562 54.7536C33.7647 54.6536 33.7704 54.5535 33.7733 54.4535V54.4307H13.8691ZM20.7595 68.8849V68.9478H20.7623C20.7595 68.9249 20.7595 68.9049 20.7595 68.8849Z" fill="#3597D3"/>
<path d="M92.7479 36.5328C94.7577 33.3665 95.8182 29.6172 95.8182 25.6964V25.4706C95.7469 25.4735 95.6757 25.4706 95.6044 25.4678H95.2481V25.6964C95.2481 29.5086 94.2161 33.1521 92.269 36.227C90.1366 39.5934 86.0771 43.6142 78.6308 44.5972H78.6251C78.5225 44.5829 78.4512 44.5801 78.4227 44.5772H78.4113L59.4907 44.5915H56.332C57.5408 52.1101 60.3374 58.3771 64.6449 63.218C68.0944 67.0959 72.5216 70.0765 77.8013 72.0798C86.8126 75.4947 95.2965 74.8603 95.3792 74.8546L95.402 75.1404V61.392C95.402 61.0662 95.0086 59.5202 94.8946 59.0515C93.5803 53.6762 89.8772 49.1896 85.0622 46.7091C84.7201 46.529 84.3695 46.3633 84.016 46.2061C82.7417 45.646 81.3961 45.2231 80.0078 44.9573C86.8468 43.6742 90.6754 39.802 92.7479 36.5328ZM63.0456 51.7672L61.033 49.6782L63.0456 47.4807L65.0668 49.6782L63.0456 51.7672ZM90.1537 59.5687L92.1721 61.7635L90.1537 63.8553L88.1411 61.7635L90.1537 59.5687ZM86.1199 69.8993L84.1072 67.8075L86.1199 65.6128L88.1382 67.8075L86.1199 69.8993ZM86.0885 53.5247L88.1068 55.7194L86.0885 57.8113L84.0758 55.7194L86.0885 53.5247ZM72.0655 47.4807L74.0838 49.6782L72.0655 51.7672L70.05 49.6782L72.0655 47.4807ZM68.1029 57.8113L66.0874 55.7194L68.1029 53.5247L70.1213 55.7194L68.1029 57.8113ZM72.1681 63.8553L70.1526 61.7635L72.1681 59.5687L74.1836 61.7635L72.1681 63.8553ZM77.0943 53.5247L79.1155 55.7194L77.0943 57.8113L75.0816 55.7194L77.0943 53.5247ZM77.1 69.8993L75.0873 67.8075L77.1 65.6128L79.1212 67.8075L77.1 69.8993ZM81.1595 63.8553L79.144 61.7635L81.1595 59.5687L83.1807 61.7635L81.1595 63.8553ZM81.1595 47.4807L83.1807 49.6782L81.1595 51.7672L79.144 49.6782L81.1595 47.4807Z" fill="#3597D3"/>
<path d="M95.401 75.4262V102H90.5262L85.8538 83.4763V102H80.9818L77.5038 87.7772C75.953 87.86 74.4535 87.6228 73.0965 87.1142L73.2704 87.2285L71.7624 89.5575L70.6591 88.8402L72.0702 86.6684C71.7909 86.5284 71.5229 86.3769 71.2606 86.214L69.6129 88.303L68.5837 87.4857L70.1916 85.4424C69.9464 85.2424 69.7098 85.0281 69.4874 84.8052L67.5033 86.3998L66.6823 85.371L68.6294 83.805C68.4498 83.5678 68.2816 83.3191 68.1248 83.0591L66.0808 84.3508L65.3795 83.2363L67.5232 81.8874C67.05 80.7701 66.7792 79.5241 66.7649 78.1839L38.3341 82.8676V101.277L38.3398 102H33.5619L28.7897 83.885V102H24.0175L18.3786 80.17C15.562 77.7609 12.9393 75.4405 11.3514 71.9483C9.29888 67.4332 9.40436 62.898 9.48133 58.1799C9.46138 57.8684 9.44997 57.5541 9.44997 57.2369V54.4306H13.2985V54.4392C13.3014 54.5421 13.3071 54.645 13.3128 54.7535C13.327 54.9479 13.347 55.1393 13.3726 55.3222C13.9913 60.3261 18.0764 64.164 23.0511 64.5383C23.0425 64.5698 23.0368 64.6012 23.0339 64.6326C22.2158 64.8155 21.5743 65.4614 21.4945 66.2187C21.4746 66.4101 21.4717 66.5873 21.466 66.7445C21.4575 67.1931 21.4489 67.4903 21.1211 67.9104C21.0812 67.959 21.0327 68.0076 20.9785 68.059H20.4739V69.2335H22.5921C22.6605 69.6908 23.0511 70.0051 23.5756 70.0165H23.5984C24.0602 70.0165 24.5449 69.7508 24.6332 69.2335H26.7485V68.059H26.2667L26.2468 68.0362C26.0529 67.8475 25.9474 67.7447 25.8448 67.4646C25.7507 67.2074 25.7393 66.9445 25.7279 66.6702C25.7108 66.1901 25.688 65.6471 25.1834 65.1613C24.9297 64.9155 24.5962 64.7384 24.1657 64.6269C24.1629 64.604 24.16 64.5812 24.1543 64.5612C26.931 64.4726 29.5936 63.2695 31.5008 61.2348C33.1457 59.4773 34.1491 57.1883 34.3259 54.7964C34.3316 54.6935 34.3373 54.5878 34.343 54.4821V54.4306H37.8837C38.6249 54.4306 39.3575 54.3592 40.0702 54.2163C40.1187 54.2106 40.1671 54.1992 40.2128 54.1906C40.3467 54.1649 40.4779 54.1391 40.609 54.1077C40.7715 54.0706 40.9312 54.0305 41.0879 53.982V53.9677C42.3794 53.5876 43.5824 52.9761 44.6201 52.1616C46.704 50.5299 48.021 47.7379 48.1892 44.6401C48.1892 44.6258 48.1892 44.6144 48.1892 44.6001H52.4227V44.5916H56.0945L55.7609 44.6458C56.9839 52.2959 59.829 58.6743 64.222 63.6067C67.7399 67.5561 72.2441 70.5881 77.615 72.6199C84.2317 75.1261 90.569 75.4748 93.5851 75.4748C94.6228 75.4748 95.2699 75.4347 95.3982 75.4262H95.401Z" fill="#3597D3"/>
<path d="M56.3314 44.5916H56.0977L56.3257 44.5544C56.3257 44.5544 56.3286 44.5802 56.3314 44.5916Z" fill="white"/>
<path d="M20.7598 68.885V68.9479H20.7626C20.7598 68.925 20.7598 68.905 20.7598 68.885Z" fill="white"/>
<path d="M20.7626 68.9479H20.7598V68.885C20.7598 68.905 20.7598 68.925 20.7626 68.9479Z" fill="white"/>
<path d="M20.5091 69.2336H20.4777V68.885C20.4749 68.9164 20.4777 68.9479 20.4806 68.9793L20.5091 69.2336Z" fill="white"/>
<path d="M20.7626 68.9479H20.7598V68.885C20.7598 68.905 20.7598 68.925 20.7626 68.9479Z" fill="white"/>
<path d="M47.623 44.6401C47.623 44.6401 47.6259 44.6201 47.6259 44.6086V44.6401H47.623Z" fill="#3597D3"/>
<path d="M38.078 34.6239H38.1008C38.1778 34.6153 38.2548 34.6096 38.3346 34.6038V34.1809L38.078 34.6239ZM9.49609 34.1809V34.5467C9.52745 34.5496 9.56166 34.5524 9.59302 34.5553V34.5496C9.62723 34.5524 9.66144 34.5553 9.69565 34.561L9.49609 34.1809Z" fill="#3597D3"/>
</g>
<defs>
<clipPath id="clip0_151_1039">
<rect width="105" height="102" fill="white"/>
</clipPath>
</defs>
</svg>
