<svg width="106" height="22" viewBox="0 0 106 22" fill="none" xmlns="http://www.w3.org/2000/svg">
<g clip-path="url(#clip0_147_707)">
<path d="M10.9046 18.2468L8.79128 15.5376C8.1334 16.0067 7.37638 16.2827 6.51122 16.3701C5.80828 16.4345 5.09633 16.1631 4.37987 15.556C3.84816 15.1144 3.44712 14.7787 3.17225 14.5441C2.90189 14.3095 2.57745 13.9967 2.19895 13.5965C1.82044 13.201 1.50952 12.8192 1.26169 12.4512C1.01386 12.0971 0.919231 11.6417 0.973304 11.0806C1.02738 10.5194 1.15355 9.96744 1.35181 9.42469C1.55008 8.88193 1.82044 8.40817 2.1674 8.0034C2.51437 7.59864 2.86133 7.37786 3.20379 7.34106L6.61486 7.13408V6.09456H0V4.27771H11.4589V6.09456H8.67863V8.78074H5.13688C4.76739 8.78074 4.42943 8.96933 4.12753 9.34649C3.82562 9.72366 3.62285 10.1882 3.52372 10.7264C3.42459 11.2691 3.40206 11.8165 3.46064 12.373C3.51471 12.9296 3.71748 13.408 4.06445 13.8127C4.41141 14.2175 4.87553 14.4429 5.45681 14.4935C6.20031 14.5579 6.87621 14.3417 7.49804 13.8495C6.97985 13.155 6.75004 12.741 6.81313 12.5984C7.04744 12.1201 7.48002 11.6831 8.11087 11.2921C8.32265 11.1541 8.52542 11.076 8.72369 11.0576C8.92195 11.0392 9.1067 11.0714 9.27793 11.1633C9.44916 11.2507 9.61138 11.3611 9.76007 11.4853C9.90877 11.6095 10.062 11.7751 10.2242 11.9775C10.5081 12.3179 10.6838 12.6628 10.7514 13.0078C10.819 13.3528 10.7289 13.6931 10.481 14.0197L9.49872 15.0224L11.6301 17.7316L10.9046 18.2422V18.2468Z" fill="#3597D3"/>
<path d="M7.95741 21.9769C7.53834 21.8896 6.63263 21.1076 5.24928 19.6311C4.93836 19.3046 4.78516 18.932 4.78516 18.5226C4.78516 18.1133 4.91133 17.7223 5.16366 17.3589C5.416 16.991 5.73142 16.6598 6.10993 16.3654C6.48844 16.071 6.92102 15.8503 7.40767 15.7031C7.89432 15.5605 8.35844 15.5237 8.79102 15.5973C9.18755 15.6709 9.9671 16.2044 11.1387 17.1887C12.3057 18.1731 13.4548 19.2356 14.5768 20.3671L14.2433 20.7626C13.9459 20.5373 13.5854 20.2521 13.1574 19.9117C12.7293 19.5713 12.4004 19.3092 12.166 19.1252C11.9317 18.9412 11.6433 18.725 11.3054 18.472C10.9674 18.2191 10.6971 18.0351 10.4988 17.9155C10.3005 17.7959 10.0707 17.6671 9.80488 17.5291C9.53902 17.3911 9.31372 17.3037 9.12898 17.2715C8.94423 17.2393 8.74146 17.2209 8.52517 17.2163C8.30888 17.2117 8.10611 17.2485 7.92136 17.3313C7.73661 17.4141 7.55186 17.5291 7.36712 17.6809C7.03367 17.9477 6.84442 18.2605 6.80386 18.6284C6.76331 18.9964 6.83991 19.3046 7.03367 19.5575C7.23193 19.8105 7.48878 20.0037 7.8042 20.1325C8.11962 20.2659 8.4756 20.2291 8.87213 20.0267L9.80037 19.5713L10.9494 20.9742C10.4537 21.2778 9.8905 21.5354 9.25064 21.7516C8.61529 21.9678 8.18271 22.0413 7.96191 21.9769H7.95741Z" fill="#3597D3"/>
<path d="M20.435 15.9561V13.8357C20.016 14.2266 19.5518 14.5532 19.0427 14.8108C18.5335 15.0684 18.0558 15.2478 17.5962 15.3397C17.1366 15.4317 16.7175 15.4593 16.3345 15.4179C15.9515 15.3765 15.6541 15.2524 15.4423 15.05C14.1806 13.8909 13.365 13.0813 12.9956 12.626C12.7252 12.2994 12.7522 11.8992 13.0812 11.4255C13.4101 10.9517 13.9058 10.4963 14.5727 10.0548C14.2032 9.8018 13.7481 9.44763 13.2118 8.98766C12.6756 8.5277 12.2746 8.15973 12.0177 7.87915C11.6212 7.45139 11.5401 6.99603 11.7654 6.51767C11.9952 6.03931 12.3467 5.61154 12.8243 5.23897C13.302 4.8664 13.7931 4.57203 14.3068 4.36044C14.8205 4.14426 15.163 4.08447 15.3342 4.17186C16.2489 4.64102 16.9834 5.22517 17.5421 5.93351C17.79 6.22329 17.844 6.54986 17.7089 6.90863C17.5737 7.26741 17.3484 7.60318 17.033 7.91135C16.7175 8.21953 16.3075 8.46791 15.8073 8.66109C15.3071 8.84968 14.8205 8.92787 14.3519 8.88647C14.5727 9.15325 14.8701 9.41543 15.2441 9.68221C15.9966 9.26824 16.6094 9.07506 17.078 9.11645L18.4524 10.5745C17.3394 10.7769 16.3751 11.2001 15.5595 11.844C14.7439 12.488 14.6087 13.0767 15.1494 13.6057C15.3973 13.8817 15.7713 13.9645 16.2714 13.8403C16.7716 13.7207 17.2853 13.5045 17.8125 13.1963C18.3397 12.8881 18.8489 12.4788 19.3446 11.9636C19.8402 11.4531 20.2052 10.9333 20.4395 10.3997V6.1037H19.0472L18.3217 4.28685H24.2922V6.1037H22.7331V17.0278L20.435 15.9699V15.9561ZM16.1137 5.83232C15.9785 5.69433 15.7668 5.65294 15.4829 5.70813C15.199 5.76333 14.9196 5.86452 14.6403 6.00251C14.3609 6.1405 14.1266 6.35668 13.9373 6.64646C13.7436 6.93623 13.6624 7.25361 13.685 7.59398C14.1446 7.59398 14.5952 7.46979 15.0368 7.22601C15.4829 6.97763 15.8028 6.71545 16.0011 6.43027C16.1993 6.1451 16.2354 5.94731 16.1137 5.83232Z" fill="#3597D3"/>
<path d="M43.5416 6.09456V4.27771H54.0767V6.09456H52.8511V11.3381C52.8511 11.5911 52.6573 11.9223 52.2653 12.3316C51.8778 12.741 51.4542 13.0906 50.9946 13.3804L49.2868 12.0005C49.5346 11.8855 49.805 11.7061 50.1024 11.4531C50.3998 11.2001 50.5485 10.9426 50.5485 10.6758V6.09456H47.0428C47.0428 6.38434 47.0383 6.8305 47.0248 7.42845C47.0113 8.0264 47.0023 8.51856 46.9977 8.89573C46.9932 9.2729 46.9977 9.69607 47.0068 10.156C47.0203 10.616 47.0473 10.9978 47.0924 11.3013C47.1374 11.6049 47.2005 11.8303 47.2861 11.9821C47.5565 12.4512 48.4667 13.2608 50.0123 14.4245C50.4809 14.7787 50.8144 15.188 51.0036 15.6572C51.1929 16.1217 51.2469 16.5679 51.1523 16.9911C51.0577 17.4142 50.8594 17.7684 50.5485 18.0628L48.7866 16.7013C49.021 16.5863 49.1967 16.3931 49.3048 16.1263C49.413 15.8596 49.4085 15.5192 49.2778 15.1144C49.1471 14.7097 48.8587 14.3187 48.4171 13.9415C48.0702 13.6517 47.597 13.2654 46.9977 12.787C46.3984 12.3087 45.9073 11.9085 45.5243 11.5957C45.1413 11.2783 44.9385 11.1036 44.9114 11.0668C44.8979 11.053 44.8619 9.40169 44.7988 6.10836H43.5371L43.5416 6.09456Z" fill="#3597D3"/>
<path d="M55.1671 2.8794C54.5002 2.56203 54.0045 2.06987 53.6846 1.40292C53.7071 1.18674 53.9054 0.915364 54.2704 0.579592C54.6353 0.243819 54.9237 0.0506349 55.131 0.00463867C55.8114 0.308214 56.2981 0.781975 56.5955 1.42592C56.3972 1.99168 55.9196 2.47924 55.1671 2.884V2.8794Z" fill="#3597D3"/>
<path d="M53.5006 6.09456V4.27771H65.721V6.09456H62.2693V8.63355H58.1734C57.8895 8.63355 57.6552 8.87733 57.4704 9.37409C57.2496 9.95365 57.2541 10.4136 57.4884 10.754C57.6507 10.9932 57.9255 11.0622 58.3221 10.961C58.4347 10.9334 58.8583 10.8046 59.6018 10.5746C60.3453 10.34 60.9716 10.1652 61.4853 10.0456C61.999 9.92605 62.2919 9.89845 62.364 9.95824C63.1435 10.6252 63.896 11.5359 64.626 12.6858C64.6981 12.81 64.7432 12.971 64.7567 13.1688C64.7702 13.3666 64.7341 13.5781 64.653 13.8035C64.5719 14.0289 64.4593 14.2635 64.3106 14.5027C64.1619 14.7419 63.9591 14.9718 63.7068 15.1926C63.4544 15.4134 63.166 15.6112 62.8461 15.7906C62.5262 15.9654 62.1387 16.1079 61.6881 16.2183C61.2375 16.3241 60.7508 16.3793 60.2326 16.3793C59.6288 16.3793 59.016 16.2459 58.3987 15.9746C57.7813 15.7032 57.2541 15.3996 56.8215 15.0546C56.389 14.7143 55.9654 14.3095 55.5508 13.8449C55.1363 13.3758 54.8389 13.017 54.6587 12.764C54.4784 12.511 54.3207 12.2765 54.1855 12.0649L54.555 11.7061C54.7668 11.9591 54.9966 12.2121 55.2489 12.465C55.5013 12.718 55.8573 13.04 56.3169 13.431C56.7765 13.8219 57.2902 14.1393 57.8669 14.3785C58.4437 14.6177 59.0025 14.7373 59.5432 14.7373C60.3092 14.7373 61.0347 14.5625 61.7151 14.2175C62.3955 13.8725 62.8371 13.4908 63.0399 13.0722C63.2426 12.6536 63.2156 12.2627 62.9543 11.8993C62.756 11.6969 62.4271 11.6601 61.9719 11.7843C61.5123 11.9085 61.0572 12.1017 60.5976 12.35C60.138 12.603 59.6739 12.7962 59.1962 12.9296C58.7186 13.063 58.3716 13.04 58.1508 12.8652C56.817 11.7429 55.9203 10.9426 55.4607 10.4596C55.2399 10.133 55.1678 9.72826 55.2489 9.2499C55.3301 8.77154 55.5283 8.31158 55.8437 7.87921C56.1592 7.44685 56.4791 7.21227 56.799 7.18927L60.1921 6.98229V6.11296H53.4961L53.5006 6.09456Z" fill="#3597D3"/>
<path d="M84.6006 6.09456V4.27771H101.07V6.09456H94.3742V8.21499C95.0906 7.57104 95.9693 7.26747 97.0057 7.30426C97.3527 7.31806 97.9069 7.72743 98.6639 8.53696C99.4254 9.34649 100.002 10.0456 100.399 10.639C100.818 11.2967 100.687 12.0695 100.002 12.9572C99.3173 13.8449 98.4476 14.4751 97.3977 14.843L95.6539 13.2148C96.9877 12.7364 97.8619 12.1937 98.2674 11.5865C98.5513 11.1679 98.7045 10.777 98.7225 10.4136C98.7405 10.0502 98.6504 9.77426 98.4431 9.59028C98.2404 9.40629 97.9655 9.2913 97.6185 9.2407C97.2716 9.19011 96.875 9.2729 96.4334 9.48908C95.3835 9.98124 94.6941 10.731 94.3742 11.7429V17.0601L92.0581 16.0022V13.3528C91.3146 14.2359 90.5621 14.6775 89.796 14.6775C88.3226 14.6775 86.9753 13.4678 85.7541 11.0438C85.4928 10.5378 85.6505 9.93525 86.2273 9.2269C86.804 8.51856 87.498 7.96661 88.3136 7.56184C89.1292 7.15707 89.7149 7.07428 90.0754 7.31346C90.6927 7.78262 91.3551 8.24258 92.0581 8.69335V6.09916H84.6051L84.6006 6.09456ZM87.5475 12.2075C87.6827 12.373 87.8945 12.5064 88.1784 12.603C88.4623 12.7042 88.8092 12.7594 89.2148 12.764C89.6248 12.7686 90.0844 12.6168 90.5981 12.2995C91.1118 11.9821 91.5985 11.5129 92.0536 10.8782V9.68687C91.1118 9.20851 90.2602 9.09812 89.4941 9.36489C88.7281 9.63167 88.1333 10.0824 87.7052 10.7264C87.2772 11.3703 87.2276 11.8625 87.5475 12.2029V12.2075Z" fill="#3597D3"/>
<path d="M103.905 4.27766H106V6.09451H104.572V17.0554L102.274 15.9975V6.09451H100.863V4.27766H103.107C102.314 3.19215 101.562 2.46081 100.845 2.08364C100.043 1.64207 98.8988 1.71107 97.4163 2.29062L96.1006 0.777345C96.7314 0.574962 97.4524 0.427774 98.259 0.331182C99.0701 0.234589 99.6513 0.220791 100.012 0.285185C100.26 0.34958 100.521 0.47377 100.791 0.653155C101.062 0.83714 101.359 1.10852 101.684 1.46729C102.003 1.82606 102.26 2.12044 102.445 2.34582C102.63 2.5712 102.905 2.92997 103.27 3.41293C103.635 3.90049 103.846 4.18567 103.91 4.27306L103.905 4.27766Z" fill="#3597D3"/>
</g>
<defs>
<clipPath id="clip0_147_707">
<rect width="106" height="22" fill="white"/>
</clipPath>
</defs>
</svg>
