<svg width="30" height="35" viewBox="0 0 30 35" fill="none" xmlns="http://www.w3.org/2000/svg">
<g clip-path="url(#clip0_147_793)">
<path d="M29.0493 25.5289C27.7974 23.6157 25.8301 22.7839 23.9079 22.8766H23.9044C18.2396 23.4879 17.865 28.8636 17.8502 29.0976L17.4937 29.0751C17.4972 29.0139 17.8989 23.108 23.9531 22.5012V22.4994H23.9679L23.9861 22.4642L24.1157 22.2113V19.7246C21.6736 22.1077 17.6989 22.3301 15.2264 19.9083V29.0859H14.8674V19.9047C12.3654 22.2671 8.39932 22.1482 5.97467 19.7246V22.2113L6.09985 22.4579L6.10159 22.4597C12.2558 23.0188 12.6418 29.013 12.6436 29.0751L12.2871 29.0958C12.2749 28.8636 11.9194 23.4969 6.30329 22.8541L6.31024 22.8694C4.26202 22.6857 2.14599 23.568 0.890627 25.7701C-1.22888 29.4866 0.64112 33.934 4.40199 35H8.45844C9.72771 34.955 11.0196 34.9667 12.3193 35H23.8323C24.2809 35 24.7234 34.9532 25.1537 34.8641C25.3902 34.8118 25.6214 34.7434 25.8474 34.6633V34.6822C26.5777 34.4463 27.2567 34.0826 27.8487 33.6054C29.0893 32.6007 29.87 30.8622 29.9613 28.9293C29.9595 28.9257 29.9595 28.9221 29.9613 28.9185C30.0004 27.7373 29.717 26.5507 29.0502 25.5289H29.0493ZM7.40912 30.5561C7.13092 30.8532 6.76144 31.0018 6.3937 31.0018C6.02596 31.0018 5.65474 30.8532 5.37654 30.5543C4.85666 29.9988 4.84536 29.1184 5.35307 28.5485C5.63301 28.2343 6.01292 28.0767 6.39109 28.0767C6.76926 28.0767 7.15178 28.2343 7.43085 28.5485C7.68036 28.8285 7.80555 29.1859 7.80555 29.5406C7.80555 29.8953 7.67253 30.2743 7.40738 30.5561H7.40912ZM24.6773 30.5561C24.3991 30.8532 24.0313 31.0018 23.6619 31.0018C23.2924 31.0018 22.9229 30.8532 22.6465 30.5543C22.1248 29.9988 22.1153 29.1184 22.6212 28.5485C22.9012 28.2343 23.2811 28.0767 23.661 28.0767C24.0409 28.0767 24.42 28.2343 24.699 28.5485C24.9485 28.8285 25.072 29.1832 25.072 29.5406C25.072 29.898 24.939 30.2743 24.6755 30.5561H24.6773Z" fill="#FFEEB1"/>
<path d="M24.113 19.5914L22.3734 18.4174C19.9253 17.1921 17.2772 17.6594 15.2238 19.4185V16.967L16.9312 14.61L15.0412 12.4412L13.1564 14.61L14.8656 16.976V19.4221C12.8174 17.816 10.537 17.1975 8.05847 18.2463L5.97461 19.5905C6.01808 17.5648 6.74573 15.6238 7.84461 13.969C6.63619 10.7487 7.28648 7.12766 8.97652 4.24761C9.04259 6.75494 9.15387 9.40812 10.6335 11.5121C13.4224 9.90778 16.7052 10.032 19.5123 11.5229C20.6764 9.33879 21.318 6.73333 20.9216 4.25031C21.2606 4.17558 21.1407 4.33764 21.2372 4.50869C22.8437 7.33923 23.3367 10.8486 22.2482 13.9726C23.0428 15.2466 23.6775 16.6042 23.9304 18.1122V18.114C23.9304 18.114 23.9322 18.1194 23.9339 18.1293C23.9539 18.2076 24.0382 18.584 24.113 19.5905V19.5914Z" fill="#FFEEB1"/>
<path d="M29.991 10.3336C30.1884 13.7241 27.2621 16.7546 23.9863 16.5511C24.0533 13.0867 26.6509 10.412 29.991 10.3336Z" fill="#FFEEB1"/>
<path d="M0.0367841 10.3336C-0.160561 13.7241 2.76572 16.7546 6.04148 16.5511C5.97454 13.0867 3.37688 10.412 0.0367841 10.3336Z" fill="#FFEEB1"/>
<path d="M19.5353 21.2768C20.3789 21.2768 21.0628 20.5685 21.0628 19.6949C21.0628 18.8213 20.3789 18.1131 19.5353 18.1131C18.6917 18.1131 18.0078 18.8213 18.0078 19.6949C18.0078 20.5685 18.6917 21.2768 19.5353 21.2768Z" fill="#FFEEB1"/>
<path d="M10.5294 21.2741C11.3687 21.2741 12.0491 20.5695 12.0491 19.7003C12.0491 18.8312 11.3687 18.1266 10.5294 18.1266C9.69014 18.1266 9.00977 18.8312 9.00977 19.7003C9.00977 20.5695 9.69014 21.2741 10.5294 21.2741Z" fill="#FFEEB1"/>
<path d="M15.0425 0L12.6465 2.69819L15.0425 5.26765L17.4428 2.69819L15.0425 0Z" fill="#FFEEB1"/>
<path d="M23.952 22.5003H23.9667C24.0154 22.4949 24.0632 22.4913 24.1137 22.4876V22.2131L23.952 22.5012V22.5003ZM5.97266 22.2122V22.4498C5.99265 22.4516 6.01352 22.4534 6.03351 22.4552V22.4516C6.05525 22.4534 6.07698 22.4552 6.09784 22.4588L5.97266 22.2122Z" fill="#FFEEB1"/>
</g>
<defs>
<clipPath id="clip0_147_793">
<rect width="30" height="35" fill="white"/>
</clipPath>
</defs>
</svg>
